<?xml version="1.0" encoding="iso-8859-1"?>
<!-- Generator: Adobe Illustrator 17.1.0, SVG Export Plug-In . SVG Version: 6.00 Build 0)  -->
<!DOCTYPE svg PUBLIC "-//W3C//DTD SVG 1.1//EN" "http://www.w3.org/Graphics/SVG/1.1/DTD/svg11.dtd">
<svg version="1.1" id="Capa_1" xmlns="http://www.w3.org/2000/svg" xmlns:xlink="http://www.w3.org/1999/xlink" x="0px" y="0px"
	 viewBox="0 0 64 64" style="enable-background:new 0 0 64 64;" xml:space="preserve">
<path d="M31.677,35.493c7.005,0,12.687-5.684,12.687-12.682c0-7.011-5.681-12.696-12.687-12.696c-7.01,0-12.684,5.686-12.684,12.696
	C18.993,29.809,24.666,35.493,31.677,35.493z"/>
<path d="M47.712,38.975c-0.67-1.435-1.514-2.878-2.592-4.255c-0.58-0.738-1.638-1.548-2.661-2.103
	c-2.652,2.972-6.496,4.854-10.782,4.854c-4.283,0-8.126-1.882-10.775-4.847c-1,0.568-2.03,1.378-2.591,2.114
	c-1.82,2.375-4.629,6.978-5.077,13.181c-0.094,1.309,0.529,3.308,1.623,4.071c2.076,1.453,6.554,3.312,15.878,3.312
	c3.228,0,5.948-0.199,8.247-0.509c-0.928-1.565-1.471-3.385-1.471-5.333C37.51,43.771,42.061,39.135,47.712,38.975z"/>
<path d="M47.712,40.959c-4.694,0-8.5,3.806-8.5,8.5s3.806,8.5,8.5,8.5c4.694,0,8.5-3.806,8.5-8.5S52.407,40.959,47.712,40.959z
	 M51.908,51.023h-3.279v3.28c0,0.543-0.441,0.983-0.984,0.983c-0.543,0-0.984-0.44-0.984-0.983v-3.279l-3.279-0.001
	c-0.544,0.001-0.984-0.439-0.983-0.982c0-0.544,0.44-0.984,0.983-0.984h3.28v-3.279c0-0.543,0.44-0.983,0.983-0.982
	c0.542,0,0.983,0.439,0.984,0.983v3.278h3.278c0.543,0,0.983,0.44,0.984,0.984C52.891,50.583,52.451,51.023,51.908,51.023z"/>
</svg>
