<?xml version="1.0" encoding="utf-8"?>
<!-- Generator: Adobe Illustrator 16.0.4, SVG Export Plug-In . SVG Version: 6.00 Build 0)  -->
<!DOCTYPE svg PUBLIC "-//W3C//DTD SVG 1.1//EN" "http://www.w3.org/Graphics/SVG/1.1/DTD/svg11.dtd">
<svg version="1.1" id="Capa_1" xmlns="http://www.w3.org/2000/svg" xmlns:xlink="http://www.w3.org/1999/xlink" x="0px" y="0px"
	 width="100px" height="100px" viewBox="0 0 100 100" enable-background="new 0 0 100 100" xml:space="preserve">
<g id="Layer_8">
	<path d="M35.068,56.555c0.39,0.5,0.584,1.188,0.584,2.064v20.908c0,2.447-0.834,3.672-2.502,3.672c-0.742,0-1.339-0.25-1.789-0.749
		c-0.451-0.499-0.676-1.235-0.676-2.21V63.623c-3.093,2.373-5.175,3.561-6.246,3.561c-0.511,0-0.965-0.203-1.36-0.61
		c-0.396-0.408-0.594-0.88-0.594-1.416c0-0.621,0.195-1.077,0.585-1.369c0.39-0.293,1.077-0.67,2.063-1.133
		c1.473-0.693,2.651-1.425,3.533-2.191c0.883-0.767,1.665-1.625,2.347-2.573c0.682-0.951,1.127-1.535,1.333-1.755
		c0.207-0.219,0.597-0.327,1.169-0.327C34.161,55.807,34.679,56.057,35.068,56.555z M45.855,56.491
		c-1.15,0.457-2.101,1.056-2.849,1.799c-0.749,0.743-1.312,1.569-1.689,2.483c-0.377,0.912-0.566,1.789-0.566,2.629
		c0,0.695,0.201,1.242,0.603,1.645s0.907,0.604,1.516,0.604c0.694,0,1.221-0.219,1.58-0.657c0.359-0.438,0.682-1.065,0.968-1.882
		c0.286-0.815,0.49-1.313,0.612-1.497c0.913-1.399,2.167-2.101,3.762-2.101c0.755,0,1.451,0.17,2.091,0.512
		c0.641,0.342,1.145,0.818,1.516,1.435c0.371,0.614,0.558,1.312,0.558,2.091c0,0.719-0.173,1.451-0.521,2.2s-0.853,1.479-1.517,2.19
		c-0.663,0.713-1.494,1.423-2.492,2.127c-0.561,0.379-1.491,1.166-2.794,2.365c-1.303,1.199-2.764,2.64-4.383,4.319
		c-0.39,0.414-0.749,0.983-1.078,1.707c-0.328,0.726-0.493,1.306-0.493,1.744c0,0.682,0.256,1.274,0.768,1.78
		c0.512,0.506,1.224,0.758,2.137,0.758h13.439c0.805,0,1.403-0.207,1.8-0.621c0.396-0.413,0.594-0.919,0.594-1.516
		c0-0.67-0.25-1.199-0.749-1.588c-0.499-0.391-1.225-0.586-2.173-0.586H46.96c0.305-0.461,0.603-0.857,0.896-1.187
		c0.682-0.828,1.938-1.991,3.771-3.488c1.832-1.498,3.139-2.596,3.917-3.296c0.779-0.699,1.543-1.668,2.292-2.904
		c0.749-1.234,1.123-2.607,1.123-4.117c0-0.961-0.18-1.891-0.538-2.784c-0.358-0.896-0.86-1.685-1.507-2.365
		s-1.395-1.218-2.246-1.606c-1.314-0.584-2.904-0.877-4.767-0.877C48.354,55.807,47.006,56.035,45.855,56.491z M94.238,36.453
		C94.238,49.988,83.227,61,69.691,61v25.66c0,2.257-1.838,4.095-4.096,4.095H18.791c-2.258,0-4.095-1.838-4.095-4.095V43.754
		c0-0.064,0.016-0.123,0.019-0.186v-7.115c0-0.867,1.118-1.57,2.5-1.57h4.464v-2.932c0-2.596,2.11-4.706,4.705-4.706
		c2.595,0,4.705,2.11,4.705,4.706v2.932h7.37v-2.932c0-2.596,2.111-4.706,4.706-4.706c1.281,0,2.428,0.527,3.273,1.361
		c3.281-9.697,12.462-16.7,23.253-16.7C83.227,11.906,94.238,22.918,94.238,36.453z M40.8,34.883h4.4
		c0.059-0.925,0.17-1.835,0.329-2.729v-0.202c0-1.304-1.061-2.365-2.364-2.365c-1.305,0-2.365,1.062-2.365,2.365V34.883z
		 M24.018,34.883h4.731v-2.932c0-1.304-1.062-2.365-2.365-2.365c-1.303,0-2.366,1.062-2.366,2.365V34.883z M66.184,60.745
		c-6.229-0.896-11.711-4.138-15.516-8.8H18.205V86.66c0,0.322,0.264,0.584,0.586,0.584h46.807c0.321,0,0.586-0.262,0.586-0.584
		V60.745z M90.238,36.453c0-11.329-9.219-20.547-20.547-20.547c-11.33,0-20.547,9.218-20.547,20.547S58.361,57,69.691,57
		C81.02,57,90.238,47.782,90.238,36.453z M83.771,26.554c-0.717-0.843-1.979-0.941-2.818-0.226l-11.495,9.797l-11.976-6.766
		c-0.959-0.544-2.182-0.204-2.725,0.758c-0.543,0.961-0.203,2.182,0.758,2.725l13.191,7.453c0.307,0.174,0.646,0.259,0.982,0.259
		c0.465,0,0.928-0.162,1.297-0.478l12.56-10.703C84.389,28.656,84.488,27.394,83.771,26.554z"/>
</g>
</svg>
